<svg id="Layer_1" data-name="Layer 1" xmlns="http://www.w3.org/2000/svg" viewBox="0 0 295.83 288"><defs><style>.cls-1{font-size:202.71px;}.cls-1,.cls-2,.cls-3{fill:#6b7c8e;}.cls-1,.cls-2{font-family:Kalam-Light, Kalam;}.cls-2{font-size:111.18px;}.cls-4{fill:#f6882e;stroke:#f6882e;stroke-linecap:round;stroke-linejoin:round;stroke-width:2.29px;}</style></defs><title>bailey-02-saas</title><text class="cls-1" transform="matrix(0.03, 0.67, -0.99, 0.11, 92.89, 77.2)">c</text><text class="cls-1" transform="matrix(-0.26, 0.61, 0.84, 0.55, 282.27, 130.7)">c</text><text class="cls-1" transform="matrix(0.41, 0.52, -0.62, 0.78, 17.18, 144.99)">c</text><text class="cls-2" transform="matrix(0.49, 0.51, -0.55, 0.84, 5.88, 192.72)">c</text><text class="cls-2" transform="matrix(-0.54, 0.46, 0.47, 0.88, 297.52, 188.18)">c</text><path class="cls-3" d="M32.32,204.38c14.42-6,29.73-1.2,44.51.56s29.66-.38,44.25-3.19c15.84-3.06,31.58-6.7,47.8-6.72s32.16,2.15,48.32,1.61c17.71-.58,35.62-2.67,53,2.05,3.73,1,5.33-4.78,1.6-5.79-15.16-4.13-30.74-3.37-46.27-2.62-16.71.81-33.11-.55-49.79-1.13-15.72-.55-30.92,1.76-46.29,4.83-15.85,3.17-31.89,6.63-48.15,5.4-16.85-1.28-34.09-7.59-50.56-.79-3.52,1.45-2,7.27,1.6,5.79Z"/><path class="cls-3" d="M113.82,154.41A306.66,306.66,0,0,1,55.6,153l2.59,4.52c2.2-4.12,10.43-5.09,14.53-6.22,5.57-1.53,11.19-2.9,16.83-4.16,11.29-2.53,22.67-4.62,34.05-6.72l-2.92-5A34,34,0,0,1,101,144.26l2.12,5.13c2.16-2,4.19-2.47,6.59-3.9q2.6.12,1.13-2.35a11.14,11.14,0,0,1-4.89,1.44c-3.81.39-3.85,6.4,0,6s16.49-4.49,10.9-10.46c-4.38-4.67-14.55,1.91-18,5-1.83,1.65-.48,5.39,2.12,5.13a40.81,40.81,0,0,0,23.94-10.65c2.39-2.18-.19-5.52-2.92-5-13.27,2.45-26.55,4.89-39.68,8-6.24,1.49-12.46,3.12-18.6,5-4.28,1.31-8.49,2.66-10.72,6.84-1.16,2.18.34,4.25,2.59,4.52a306.66,306.66,0,0,0,58.21,1.44c3.83-.27,3.86-6.28,0-6Z"/><path class="cls-3" d="M180,122.34l-24.37,4.55c-3.88.72-7.87,1.24-11.7,2.19-3.6.89,4-.7,3.71-.4a10.52,10.52,0,0,1-2.6.18c-1,.14-3.78-.37,1.06.31q3.8.68,1.78.17-3.35-1,3.93,2.47l4.5,2.62,6,14.38c0-.39-1.11,6.47-.56,3.45A96.67,96.67,0,0,0,163.17,142c.5-6.85-1.54-14-4.74-20a53.79,53.79,0,0,0-8.72-11.34c-1-1.09-2.11-2.17-3.18-3.23-.58-.58-2.51-2.7.21.36,3.38,3.81-.89-2.86,1.27,2a16.1,16.1,0,0,1,1.43,6.21l-2.88,7.09q-.52,7.43-7.14,9.63c.55-.33-7.87,4.84-8.75,3,0,0,2,0,2.11,0,3.05-.31-4.33-.2-3.71-.55.33-.19,2.16.47,2.54.56,2,.48,3.88,1.12,5.81,1.75,2.83.93.83,1.71-1.65-.72A11.52,11.52,0,0,0,138.1,138q2.3,1.23,4.48,2.68a11,11,0,0,0,2.17,1.5s-4.21-3.45-2-1.54c1.56,1.34,3.15,2.63,4.71,4,14.8,12.81,30.64,25.1,51.27,25.11a60.09,60.09,0,0,0,17.54-3.1,11.13,11.13,0,0,1,2.35-.68s-6.74,0-2.41.44c-.16,0-5.84-1.46-3.75-.27.72.41,4.44,1.72.17-.07-3.91-1.63-1.37-.56-.54-.18,2.56,1.16,5.17,2.27,7.78,3.3a28.84,28.84,0,0,0,4.54,1.44c9.52,2.07,17.65.55,26.39-3.57,10.3-4.86,15.85-19.94,12.42-30.52-3.5-10.82-13.94-20.65-26.06-19.84-2.3.15-4.55.12-6.85.07-3.84-.09,1-.21,2.08.35-1-.54-3-.63-4.18-1s-2.17-.75-3.27-1c-3.17-.79,4.51,2.42,1.72.73a59.44,59.44,0,0,0-7.7-3.65,31.76,31.76,0,0,0-34.21,6.53c-7.94,7.51-10.87,18.62-9.45,29.15,3.63,27,30.9,45.35,56.75,45.9l-7.18-53.09c-5.05.82,4.42-.32.93-.11-1.5.09-3,.28-4.5.36q-4.05.22-8.12.1c-2.64-.08-5.49-.76-8.1-.59,2.54-.17,5.19.81.94,0q-2.22-.41-4.42-.92c-5-1.17-9.82-3.11-14.86-4.2a51.08,51.08,0,0,0-13.5-1.45c-6.76.42-11.94,2.27-18.09,5-8.42,3.73-13.39,14.65-13.39,23.34,0,9.2,5.07,18.94,13.39,23.34,11.76,6.21,22.7,7.2,35.66,5.23,6-.91,13.41-7.23,16.15-12.42a27.85,27.85,0,0,0,3.21-17.23c-1.72-12.78-13-23.94-26.54-23.43A330.33,330.33,0,0,0,131,143.44c-4,.81-8,1.81-12,2.7-.79.18-5.25,1.43-5.44,1.1l3.53-.45q-1.84.2-3.68.25c-1.06,0-5.26.46-5.76-.22l3.36.5q-1.91-.29-3.81-.63c-3.67-.65-7.36-1.34-11-2.18-1.79-.41-3.57-.85-5.32-1.38q-1.32-.39-2.61-.86-2.86-1,2.22,1a39.09,39.09,0,0,0-3.8-2.09c-4.31-2.44,4.26,4.28.9.68a19.42,19.42,0,0,1-1.5-1.55q-2.05-2.33,2,2.65a15.84,15.84,0,0,1-1.07-1.85q-1.36-2.66,1.28,2.83c3.71,11.1-5.22,19.37-.33,12.39.85-1.22,2.38-2.58,2.94-4q-3.84,4.91-1.16,1.58l1.06-1.26c1.07-1.24,2.18-2.45,3.36-3.59,4.38-4.27.82.4-.5,0a22.23,22.23,0,0,0,4-2.4q-6.53,2.56-2.56,1.17a19.27,19.27,0,0,1,2-.53c2.87-.88-7.57.94-1.65.4,3-.27-7.58-1.21-1.81-.16q3,.94-3.35-1.47,3.5,2.15-2.17-1.87c5.53,4.73,11.62,7.92,19.11,7.92,6.63,0,14.55-2.94,19.11-7.92,9.28-10.1,11.47-28.4,0-38.22-12.11-10.38-25.87-14-41.54-11.17-11.49,2-22,8.85-30,17.15-9.11,9.44-19.36,22-19.78,35.64-.5,16.11,9.49,29.54,22,38.52,8.85,6.36,19.63,9.49,30.2,11.57,13.92,2.74,26.64,4.08,40.69,1.62,9.83-1.73,19.84-5.56,29.87-5.91-8,.27.79,0,2.47-.2q3.87-.39,7.75-.69c5.17-.39,10.36-.65,15.54-.84l-7.18-53.09q6.14-.64,2.94-.6t2.95.52c-5-1.17,5,2.9.11.29v46.67a31.88,31.88,0,0,1-7.64,2.3q3.36.21-.43-.17-3.39-.52-1.2,0c2.23.89,4.79,1.39,7.1,2.1a104.18,104.18,0,0,0,15.83,3.54,137.27,137.27,0,0,0,43.13-.5c6-1,13.38-7.17,16.15-12.42a27.85,27.85,0,0,0,3.21-17.23A27.06,27.06,0,0,0,232,139.67q-1.07,0-2.14-.08-3.26-.25,3.65.52a21.54,21.54,0,0,0-3.45-.87c-5.25-1.62,1.83.88,1.82.9-.14.17-3.54-2-3.72-2.12-3.83-2.3,3.68,3.44,1.52,1.17-.81-.85-1.68-1.7-2.52-2.52q-2-2.41.34.51t.5.39c-.51-1.1-1.7-4.81-.57-.75a6.74,6.74,0,0,1,1,3.81q3.45,20.09-32.48,20.05a31.7,31.7,0,0,0,3.36,1.78A89.46,89.46,0,0,0,213,168a70.38,70.38,0,0,0,24.15,2.69l-13.64-50.36c3.63-1.71,10.7-3.79,14.63-2a12.06,12.06,0,0,0-1.94-.57c-3.17-.78,5.56,2.49,2.5,1.1l-2-.89c-7.2-3.16-14-5.87-22.08-5.67a51.57,51.57,0,0,0-16.6,3.4c-2.71,1-2-1.18,2.36-.11a10,10,0,0,0-2.44,0c-3.43.3,5.64,1.42,2.34.34-1-.33-2.15-.65-3.17-.88-3.37-.73,4.85,2.55,1.82.83-.73-.41-1.51-.75-2.24-1.15-1.77-1-3.77-2.93-5.63-3.62,0,0,4.19,3.45,2,1.53-.88-.77-1.81-1.5-2.7-2.26-1.79-1.52-3.55-3.08-5.33-4.62-9.39-8.1-18.55-14.39-30-19.1-10.58-4.36-23-6.67-34.23-3.55-18.42,5.12-29,24.53-24.09,42.85,1.91,7.06,5.86,13.12,10.6,18.57,1.15,1.33,2.42,2.55,3.64,3.81.53.55,1,1.11,1.58,1.65,3.71,3.78-2.86-3.76-1.13-1.33s-1.63-4.3-1.81-5.27c-.34-1.86.65-4.65.14-6.26a16.41,16.41,0,0,1-.47,3,57.37,57.37,0,0,0-1,7.92c0,9.27,3.43,18.51,10.23,24.93,12.22,11.53,27.5,10.49,42.71,7.65l33.14-6.19c13.93-2.6,23.11-20.17,18.88-33.25-4.82-14.9-18.32-21.66-33.25-18.88Z"/><path class="cls-3" d="M91.25,174.38c-.43.45-4.11,4.46-4.52,4,.07.07,2.37-.25,2.28,0,.09-.27-6.35-2.78-5.61-2.55-6.2-2-11.79,1.23-17.7-.43a48.21,48.21,0,0,0-20.42-1.32,40.62,40.62,0,0,0-8,1.91,42,42,0,0,0-5.82,2.45c-2.19,1.21-2-.43.54.21l5.3,20.08a77.58,77.58,0,0,1,14.65-13.9c5.29-3.74,7.78-10.49,4.31-16.43-3.06-5.23-11.11-8.07-16.43-4.31a100.35,100.35,0,0,0-19.52,17.66c-5.56,6.67-4.08,17.65,5.3,20.08a21.72,21.72,0,0,0,12.93-.52c3.36-1.19,6.35-2.89,9.9-3.52,6.9-1.24,12.69,2.29,19.5,2.45a30,30,0,0,0,6.61-.69c1.34-.27,4.38-.4,1-1.13,4.21.91,7.06,3.64,11.67,3.75,8.48.2,15.49-5,21-10.86,10.61-11.24-6.35-28.26-17-17Z"/><path class="cls-3" d="M242.92,175.82l13.48,7.82c3.13,1.82,6,3.21,7.43,6.2l10.37-18.07c-6.11-.74-11.6-3.76-17.91-4.13-7.18-.42-13.23,2-18.7,6.46-5,4.1-4.26,12.73,0,17,5,5,11.94,4.11,17,0-1,.84,0,.28,1,.52.26.06,2.82.57,3.91.88a93.55,93.55,0,0,0,14.75,3.3c9.84,1.19,13.89-10.86,10.37-18.07C279.1,166.51,265.27,161,255,155.08c-13.4-7.78-25.51,13-12.13,20.74Z"/><polygon class="cls-4" points="147.69 96.68 129.19 160.47 145.08 159.97 145.4 186.09 158.2 185.69 154.4 160.01 170.02 161.01 147.69 96.68"/></svg>