<svg id="Layer_1" data-name="Layer 1" xmlns="http://www.w3.org/2000/svg" viewBox="0 0 295.83 288"><defs><style>.cls-1{font-size:209px;font-family:Kalam-Regular, Kalam;}.cls-1,.cls-4,.cls-5{fill:#f6882e;}.cls-1,.cls-4{stroke:#f6882e;}.cls-2{font-size:208.28px;}.cls-2,.cls-3{fill:#6b7c8e;}.cls-2,.cls-4{font-family:Kalam-Light, Kalam;}.cls-4{font-size:116.99px;stroke-miterlimit:10;stroke-width:1.68px;}</style></defs><title>bailey-02-saas</title><text class="cls-1" transform="translate(101.22 -91.92)">?</text><text class="cls-2" transform="matrix(1.12, 0.28, -0.24, 0.97, 103.12, 131.31)">O</text><path class="cls-3" d="M236,72.29C235.07,87.61,223.86,95.36,212,103c-5.85,3.76-11.63,7.67-17.58,11.27-6.25,3.77-13.11,7.24-20.45,4.7-5.33-1.85-7.61,6.59-2.32,8.43,16.52,5.73,33.45-9.57,46.31-17.84,7-4.49,14.07-8.91,19.11-15.66a39.51,39.51,0,0,0,7.62-21.57c.33-5.62-8.41-5.6-8.74,0Z"/><path class="cls-3" d="M221.28,68.55,209.67,78.89l-5.81,5.17c-1.67,1.49-4.57,5.14-7.07,5l4.37,4.37A4.41,4.41,0,0,1,202.27,90c3-4.76-4.54-9.15-7.55-4.41a14.58,14.58,0,0,0-2.31,7.75,4.46,4.46,0,0,0,4.37,4.37c6.13.45,10.51-5.08,14.7-8.81l16-14.22c4.21-3.75-2-9.91-6.18-6.18Z"/><path class="cls-3" d="M206.44,68.88c-1.27,4.43-3.35,9-4.12,13.56-.42,2.47,1.23-2.11,0,.06s1.12-1,1.3-1.3c.8-1.31.59-.36-.39.08s-2,1-3,1.5a35.83,35.83,0,0,0-10.5,7.49c.48-.51-5.44,6.4-5,7.31-.61-1.35,5.76-3.11,1.63-2.08-4.85,1.21-9.63,2.61-14.52,3.65-.84.18-1.76.27-2.57.53-2.41.76,2.66.09.11,0-1.13,0-2.86-.79-1.42.21,1.16.8,2.33.68,3.46,1.91s2.37,3.91.82.44c-.92-2.06-.16,2.2-.08-.25,0-.81,0-1.68-.06-2.49-.11-3.16,0-1.28-.17-.31a32,32,0,0,1,.67-3.27c.27-1.09.59-2.17.93-3.24.12-.38,1.7-4.34,1-2.69s.52-1,.55-1c.54-1,1-2.06,1.61-3.07,1.11-2,2.31-4,3.56-5.94,1.07-1.66,2.14-3.34,3.33-4.91,1.67-2.22-1.58,1.55.42-.36.75-.72,2.91-2.21,1-1a30.39,30.39,0,0,1,3.1-1.62c-.35.16-2,.85-.1.09,3-1.21,6-2.39,8.95-3.72a77.6,77.6,0,0,0,11.7-6.5c4.18-2.84,7.92-6.23,12-9.21C218,54.6,223,51.33,223.64,51c-.19.1-2.52,1.16-.66.42s-1.89.26-2.79,0a7,7,0,0,1-3.1-1.86c1.37,1.08.55,1.67-.08-.45.11.36,1.45,2.26.38.33-1.18-2.13.12.91.33,1.54.77,2.25.34-2.1,0,.26a21.87,21.87,0,0,0,0,2.49c0,1.11-.14,2.22-.27,3.32.37-3.19-.19.65-.31,1.26q-.75,3.82-1.86,7.55c-.33,1.1-.73,2.19-1.06,3.29-.92,3,.73-.84-.27.77-.39.63-.72,1.36-1.08,2q-1.46,2.2-.37.68t-.62.44a13.85,13.85,0,0,0,1.69-1.19q1.63-.59-1,.22l1.32-.13c-5.27.68-10.7,0-16,.55a118.84,118.84,0,0,0-19.32,3.34l19.74,25.68A95.73,95.73,0,0,1,204,90.42c1.1-1.79,2.29-3.52,3.48-5.25.78-1.14,1.2-1.62.11-.24.81-1,1.66-2,2.52-3A92,92,0,0,1,219,73c.79-.69,1.63-1.34,2.41-2,2-1.77-2,1.33.2-.16,2-1.33,3.87-2.7,5.88-4L203.59,42.88c-.66,1-1.33,1.9-2,2.84.06-.08-2.69,3.56-1.78,2.4s-1.17,1.4-1.35,1.63q-1.39,1.67-2.82,3.31a153.74,153.74,0,0,1-11,11.17c-6.73,6.23-6.77,18.5,0,24.72a17.86,17.86,0,0,0,24.72,0,173.83,173.83,0,0,0,24.39-28.43C243.89,46,224.17,27.6,209.87,36.61,191.78,48,176.75,64.35,168,83.94c-3,6.62-3.31,13.36,1.37,19.41a17.58,17.58,0,0,0,18.37,6.26,90.4,90.4,0,0,1,9.11-2c-3.19.5,2.82-.25,2.77-.25,1.55-.11,3.11-.18,4.66-.21,7-.13,13.95.08,20.61-2.32,15-5.41,22-20,25.35-34.65,3.47-15.08,3.9-30.89-6.59-43.34C233,14.16,214.89,14.37,202,23.29c-3.2,2.21-6.17,4.78-9.22,7.18-2.33,1.84,3.34-2.07-1.1.76-1.18.75-2.32,1.56-3.51,2.29-2.39,1.47-4.94,2.6-7.36,4-2.69,1.54,3.79-1.43-1.29.57-2.5,1-5,2-7.46,3.06-12.71,5.51-21.2,18.08-27.17,30.17-6.46,13.1-10.61,28.83-5.42,43.13,3.07,8.43,8.31,14.54,16.61,18,7.84,3.31,16.09,2.25,24.18.58,7.6-1.57,15.69-3.19,22.7-6.62a27.71,27.71,0,0,0,11.22-10c.25-.38,2.4-3.47,2.23-3.81.52,1-5.05,3.46-1.42,1.82,6.71-3,13.36-7.19,17.18-13.68,4-6.77,5.86-15.13,8-22.63,2.51-8.79-3.07-19.42-12.21-21.5-9.31-2.12-18.81,2.8-21.5,12.21Z"/><text class="cls-2" transform="matrix(-1.12, 0.28, 0.24, 0.97, 203.4, 126.77)">O</text><path class="cls-3" d="M61.88,67.77A39.63,39.63,0,0,0,69.15,88.9c5.05,7,12.32,11.51,19.45,16.1,12.85,8.27,29.8,23.56,46.31,17.84,5.28-1.83,3-10.28-2.32-8.43-7.33,2.54-14.2-.94-20.45-4.7-6-3.59-11.74-7.5-17.58-11.27-11.83-7.61-23-15.36-23.94-30.68-.33-5.59-9.07-5.63-8.74,0Z"/><path class="cls-3" d="M79.13,70.2l16,14.22c4.19,3.73,8.58,9.26,14.7,8.81a4.44,4.44,0,0,0,4.37-4.37,14.59,14.59,0,0,0-2.31-7.75c-3-4.74-10.57-.36-7.55,4.41a4.41,4.41,0,0,1,1.11,3.33l4.37-4.37c-2.5.18-5.4-3.47-7.07-5l-5.81-5.17L85.31,64c-4.19-3.73-10.39,2.43-6.18,6.18Z"/><path class="cls-3" d="M66.44,73.65c2,6.91,3.79,14.13,7,20.61s8.46,10.78,14.68,13.9c1.18.59,2.36,1.23,3.55,1.81,2.65,1.28.19,0-.4-.45-2.68-2.14-.36-.09.43,1.2a33.37,33.37,0,0,0,4,5.35c5.55,5.89,13.12,8.14,20.71,10.12C130.83,130,147.9,134,159.88,122c10.93-10.91,11.4-29.26,6.89-43.14-4-12.32-11.53-26.36-21.2-35.19A38.53,38.53,0,0,0,135.37,37c-2.18-1-4.4-1.88-6.62-2.77.35.14-5-2.08-2.73-1.07s-2.76-1.4-2.46-1.25q-1.86-1-3.67-2t-3.56-2.21c-.44-.29-4.2-3-1.88-1.21-5.68-4.31-10.7-8.88-17.33-11.68a29.57,29.57,0,0,0-26,1C57.64,23.17,52.65,38.88,54.34,53.41,56.18,69.11,60.58,87.8,74.75,97c7.49,4.85,16.22,5.59,24.9,5.63a85,85,0,0,1,11,.58c-.85-.12-2.61-.49.89.21,2.45.49,4.86,1,7.28,1.68a17.58,17.58,0,0,0,18.37-6.26c4.61-6,4.32-12.79,1.37-19.41-8.74-19.6-23.77-35.94-41.85-47.33-6.3-4-16.1-2.81-21.18,2.73S68.29,49.51,72.81,56A173.83,173.83,0,0,0,97.2,84.43c6.71,6.21,18.17,7.14,24.72,0,6.2-6.76,7.17-18.09,0-24.72a153.73,153.73,0,0,1-11-11.17q-2.3-2.61-4.47-5.33c1.46,1.82-.46-.61-1-1.3-.86-1.17-1.69-2.36-2.52-3.55L79.08,62.28c1.78,1.12,3.52,2.29,5.24,3.5,1.14.8,1.58,1.25.22.13.81.67,1.63,1.33,2.42,2a92,92,0,0,1,9.48,9.45c.69.79,1.34,1.62,2,2.42,1.73,2-1.3-2,.14.21,1.14,1.76,2.41,3.44,3.53,5.22a95.4,95.4,0,0,1,6.25,11.83l19.74-25.68c-10.19-2.71-20.54-3.61-31-3.73-1.14,0-2.28-.11-3.42-.11-2.88,0,2.45.35-.33-.14-1.89-.33,0-.07.32.21,2.52,1.93.61.48.07-.06,2,2.05.49.81.06-.08s-1-1.8-1.42-2.71c.33.67,1.05,3,.06-.08-.35-1.1-.73-2.19-1.06-3.29q-1-3.31-1.7-6.7c-.23-1.13-.44-2.26-.63-3.4.13.77.2,3.1,0-.37-.05-.83-.11-1.66-.13-2.5,0-.48.08-3.94-.1-1.8s.4-1.24.47-1.71c.44-3-1,3.94.3-.28,0,.12-1.88,2.4-.56.92s-1.15.79-1.75,1c-1.24.51-2.35.18-3.53.32-1.69.2-.2-.22.59.18-3.05-1.57-.53-.21,0,.13.88.59,1.78,1.15,2.66,1.74-.57-.38-2.4-1.94.3.22,1,.84,2.07,1.68,3.12,2.51a102.16,102.16,0,0,0,27.42,15.59c.37.14,3,1.32.72.23.8.37,1.56.8,2.34,1.19,2.45,1.23-1.36-1.5.59.28.3.27,2.69,2.74,1.42,1.32-1.12-1.25.59.8.66.9q1,1.38,1.9,2.79c1.43,2.16,2.8,4.36,4.07,6.62Q131,83.25,132.29,86c-1.14-2.42.05.12.21.57.36,1.07.74,2.13,1.05,3.22s.55,2.17.81,3.26c.21.91,0,3.07.06.29,0,.83.07,1.66.06,2.49,0,1.33-.56,3.59,0,1.18.06-.25-.74,2.95-.8,2.92-.43-.2,1.61-2.8,1.44-2.62A6.58,6.58,0,0,1,137,95.92c.84-.42,3.55-.23,1.68-.68-.48-.12-3.75-.39-1.47,0,2.09.33-.4-.13-.68-.2-2.73-.64-5.49-1.18-8.22-1.86s-5.41-1.62-8.14-2.18c-1.39-.28-1.87-1.35-.39.08.56.53,2.22,3.14,1.66,1.36-1.65-5.19-7.74-10-12.22-12.64-1.69-1-3.55-1.89-5.33-2.71-.13-.06-1.7-1-1.71-1a4.5,4.5,0,0,1,1.94,1.86q1.1,1.68-.27-.64c.35-.15.74,2.83.37.61a34.46,34.46,0,0,0-1.39-4.38c-.95-3-1.85-6.11-2.72-9.18-2.51-8.79-12.46-15.14-21.5-12.21s-14.9,12.08-12.21,21.5Z"/><path class="cls-3" d="M41.72,64.88A737.11,737.11,0,0,0,120.78,231.6q14.29,22.34,30.19,43.59c1.93,2.58,5.71,3,7.55,0,24.4-40.14,48.28-80.62,70.41-122.06,11-20.61,22-41.41,31.59-62.71,8-17.74,15.67-40.36,5.07-58.73-8.49-14.7-28.29-25-44-15-4.72,3-.35,10.59,4.41,7.55,12.83-8.2,28.91,3,33.82,15.46,7.54,19.16-4.27,41.24-12.47,58.13-18.43,38-38.68,75-59.84,111.55Q169.6,240.31,151,270.78h7.55A728.29,728.29,0,0,1,68.16,111.49q-9.88-24.14-18-48.93c-1.75-5.32-10.19-3-8.43,2.32Z"/><path class="cls-3" d="M101.83,108.67c4.56,17.11,17.32,29.65,29.93,41.31,4.13,3.81,10.32-2.35,6.18-6.18-11.47-10.61-23.52-21.85-27.69-37.45-1.45-5.43-9.88-3.13-8.43,2.32Z"/><path class="cls-3" d="M155.77,122.81a135.63,135.63,0,0,0-24.66,46.88,13.34,13.34,0,0,0,6,14.81c5.34,3.13,11.35,1.7,15.89-2,15.23-12.59,30.71-24.94,45.69-37.82,6.82-5.86,12.17-13.09,18.85-19,6.46-5.74,14.85-9.26,22.63-12.83L222.26,94.82l-23,41.94c-6.37,11.64-12.22,23.39-22.3,32.09l21.91,12.76c1.89-13.35,1.37-26.44-2.85-39.35-4-12.3-21.38-12.6-25.28,0a319.36,319.36,0,0,1-20.28,50.13l24,3.13a73.3,73.3,0,0,1-3.9-24c.09-16.88-26.13-16.9-26.22,0a97,97,0,0,0,4.83,31c3.32,10,18.56,13.76,24,3.13A360.66,360.66,0,0,0,196,149.23H170.76c2.67,8.16,4.06,16.82,2.85,25.41-.83,5.87.56,11.61,6,14.81,5.27,3.08,11.45,1.78,15.89-2,11.23-9.69,18.44-22.86,25.46-35.68l23.91-43.65a13.44,13.44,0,0,0-2-15.89c-4.39-4.39-10.53-4.5-15.89-2-9,4.11-17.58,8.45-25.3,14.7-7.4,6-13,13.84-20.17,20.13-15.28,13.41-31.34,26-47,39l21.91,12.76a102.81,102.81,0,0,1,17.92-35.31c4.41-5.53,5.4-13.14,0-18.54-4.57-4.57-14.11-5.57-18.54,0Z"/><path class="cls-3" d="M55.91,97.25c2.7,18.26,17.51,31.9,28.46,45.71,10.31,13,19.81,27.25,25.05,43.09a13.23,13.23,0,0,0,25.28,0,111.57,111.57,0,0,0-.17-70.8l-19.26,14.81c6,2.62,14.26,6.17,18.23,10.2-.58-.59,1,2.1.24.15-.1-.25,0-1.94,0-.38-.08,1.74,0-.38.06-.44,1.24-1.42,1.19-2.37,2.93-3.33.72-.39,1.71-.41,2.32-.76,1.36-.78.14,1,.28-.06a3.67,3.67,0,0,1-.63-.42,46.79,46.79,0,0,1-5-5.54,43.76,43.76,0,0,0-7.24-7.6c-7.24-5.71-14.95-6.33-23.86-5.84-6.79.37-13.57-.29-19.68,3.4-9,5.45-10.43,17.3-5.2,25.83,3.85,6.29,8.34,12,11.78,18.57,3.35,6.43,6.33,13,9.66,19.49,7.49,14.48,17.58,28.38,32.26,36.19,4.8,2.55,12.07,2.45,15.89-2,10.35-12.22,16.23-27.47,15.15-43.63-.43-6.48-4.65-12.08-11.37-12.88-6-.72-13.09,2.9-14.38,9.39l-4.42,22.23,16.13-9.16c1.52.58,2.13,1,2.55,2.27l-3.37,12.76-2.93,1.68q-5.77-.51-3.14.16c1.4.46-.47-.31-.7-.4-1-.42,1.23,1.52.13,0,.33.47.61,1.66.33.61,1.28,4.71,1.54,9.68,3.13,14.3,2.07,6,5.54,11.38,11.24,14.47,7.43,4,16.06,1.58,22-3.88,7.78-7.17,14.23-16.72,19.84-25.63a178.42,178.42,0,0,0,14.85-30.05c4.88-12.43-13.4-21.86-21.91-12.76a235.9,235.9,0,0,0-43.84,66.05c-2.85,6.48-1.9,14.08,4.7,17.94,5.7,3.33,14.91,1.73,17.94-4.7a15.93,15.93,0,0,1,1.28-2.44q-1,1.21.59-.52-1.33.87.67-.39-1.6.47.69-.22l-12.76-21.91c-9.32,11.55-16.08,24.62-18.84,39.3l25.75,3.49c-1.3-13.73-8.2-24.06-16.94-34.33-1.76-2.07-3.56-4.1-5.31-6.18-.94-1.11-1.87-2.22-2.77-3.36,1.54,1.94-.82-1.14-.9-1.26a46.72,46.72,0,0,1-4.22-7.17c1.15,2.48-.23-.88-.33-1.22-.18-.63-.85-5.23-.58-2.31-.64-7.05-5.56-13.11-13.11-13.11-6.59,0-13.76,6-13.11,13.11,1.26,13.73,8.16,24.07,16.88,34.33,1.76,2.07,3.56,4.1,5.31,6.18.94,1.11,1.87,2.22,2.77,3.36-1.54-1.94.82,1.14.9,1.26a47.8,47.8,0,0,1,4.23,7.17c-1.16-2.46.24.87.34,1.22.18.62.88,5.23.6,2.31.61,6.48,4.51,12.06,11.37,12.88,6,.71,13.16-2.89,14.38-9.39,1.89-10.07,5.61-19.7,12.09-27.73,3.71-4.6,5.21-10.48,2-15.89-2.87-4.9-9.28-7.72-14.81-6-8.12,2.5-15.23,7.82-18.91,15.63l22.64,13.23A215.38,215.38,0,0,1,209,175.44l-21.91-12.76a143.65,143.65,0,0,1-12.67,24.52c-2.33,3.66-4.79,7.26-7.46,10.67-1.59,2-3.27,4-5,5.95-.42.47-2.16,1.86-2.24,2.44-.27,1.89,10.71-1.38,10,1.42.2-.78-1.13-4.16-1.36-5.39-.45-2.41-.74-4.86-1.35-7.24a28.21,28.21,0,0,0-7.48-13.54c-8.73-8.41-21.14-9.76-30.45-1.6a12.84,12.84,0,0,0-3.37,12.76c2.71,8.1,7.84,13,15.76,16,6.29,2.41,14.84-2.7,16.13-9.16L162,177.32l-25.75-3.49c.61,9.18-1.49,18-7.47,25.09l15.89-2c-10.68-5.68-17-15.57-22.85-26.79-3.47-6.7-6.56-13.58-10.07-20.26-1.61-3.07-3.31-6.09-5.17-9-1.26-2-4.6-8-6.16-8.52.21.07-5.3,10-5.44,10.19.52-.49,1.65.16.6-.19s.3,0,.75,0c.62,0,1.27,0,1.9,0,3.46,0,6.9-.41,10.36-.44,2.17,0,1.42.08,3.26,2.1,2.18,2.39,4,5.11,6.11,7.52,11.49,12.88,34.6,14.62,40.89-4.38,6.77-20.46-14.81-33-30.32-39.71-4.94-2.15-10.05-2.56-14.56,1-3.9,3.11-6.41,8.76-4.7,13.78a87.5,87.5,0,0,1,.17,56.86H134.7c-5.83-17.6-15.32-33.26-26.54-47.91C102.63,123.94,96.77,117,91,109.94c-4.92-6-8.69-11.93-9.83-19.66-1-7-9.9-10.87-16.13-9.16-7.51,2.06-10.2,9.1-9.16,16.13Z"/><text class="cls-4" transform="matrix(1.12, 0.28, -0.24, 0.97, 124.15, 154.17)">O</text><path class="cls-5" d="M201.25,121a19.26,19.26,0,0,1-5.46,12.64,39.29,39.29,0,0,1-7,5.31l-10.41,6.7c-4.53,2.92-10,5.94-15,3.91"/><path class="cls-5" d="M197,121c-.65,8.27-7,12.13-13.38,16.23-5.14,3.31-12.67,10.27-19.2,8.27-5.2-1.59-7.42,6.54-2.24,8.12,10.07,3.09,19.26-5,27.18-10.08,8.72-5.62,15.22-11.67,16.07-22.55.42-5.41-8-5.38-8.42,0Z"/><path class="cls-5" d="M192.27,120.67,180,131.56c-.92.82-2.09,1.7-3.26,1.33a4.69,4.69,0,0,1,1-3.11"/><path class="cls-5" d="M189.3,117.69l-6.55,5.83-3.06,2.72c-.52.46-2.2,2.48-2.9,2.43l4.21,4.21a1.05,1.05,0,0,1,.38-1c2.91-4.59-4.37-8.82-7.27-4.25a10,10,0,0,0-1.53,5.24,4.3,4.3,0,0,0,4.21,4.21c3.92.29,6.62-2.89,9.3-5.28l9.17-8.17c4.06-3.61-1.92-9.55-6-6Z"/><path class="cls-5" d="M191.67,121.73q-1,3.62-2.18,7.21a11,11,0,0,1-1.84,3.85c-2.07,2.43-5.89,2.8-7.88,5.3-.86,1.08-1.29,2.46-2.24,3.46a8.6,8.6,0,0,1-4,2q-4.54,1.31-9.18,2.26c-2.75.56-5.86,1-8.12-.7a8.06,8.06,0,0,1-2.8-5c-1.52-7.49,2.32-15,6.62-21.29a19.36,19.36,0,0,1,4.31-4.91,27.94,27.94,0,0,1,6.23-2.94,42.36,42.36,0,0,0,10.52-6.16c3.18-2.55,6.67-5.77,10.69-5.08a8.05,8.05,0,0,1,5.84,5.45,17.62,17.62,0,0,1,.42,8.29,45.1,45.1,0,0,1-2,8.48c-1,2.94-2.5,6-5.2,7.52s-6.11,1.34-9.28,1.36a47.69,47.69,0,0,0-12.43,1.74,51.44,51.44,0,0,1,20-23.06,81.68,81.68,0,0,1-12.16,14"/><path class="cls-5" d="M187.61,120.61c-.73,2.54-1.24,6.76-2.8,8.87s-4.26,2.58-6.2,4-2.36,3.32-3.89,4.82c-2.09,2-6.9,2.45-9.63,3-2.91.63-5.82,1.51-7.4-1.69-1.35-2.72.09-7.26,1.09-9.87,2.36-6.13,6-11.87,12.13-14.48a57.24,57.24,0,0,0,13.18-7.56c2.09-1.63,5.48-5.24,8.33-3.16,2.53,1.85,1.74,6.87,1.29,9.45-1,5.56-2.33,12.26-9,12.53-5.76.23-11.13.45-16.75,1.9l4.76,6.19a49.29,49.29,0,0,1,18.47-21.55l-5.76-5.76a84.08,84.08,0,0,1-11.51,13.13c-4,3.71,2,9.66,6,6a94.5,94.5,0,0,0,12.82-14.83c2.44-3.48-2.33-8-5.76-5.76a57.1,57.1,0,0,0-21.5,24.57c-1.47,3.25,1,7.17,4.76,6.19A50,50,0,0,1,182.32,135c3.12,0,6.28,0,9.19-1.29,5.94-2.57,8.35-9,9.77-14.88,1.48-6.1,2.37-13.38-1.66-18.73C196,95.27,190,94.31,184.69,97c-3.13,1.61-5.62,4.21-8.52,6.16a62.62,62.62,0,0,1-10.42,5.16c-6.66,2.91-10.86,9.63-13.81,16-5.09,11.06-3.93,28.36,12.14,25.73a61.46,61.46,0,0,0,12.54-3.2c3.81-1.51,4.39-4.65,7.36-6.93,2.48-1.9,5.36-2.42,7.32-5.09,2.46-3.36,3.3-8.13,4.44-12.06,1.5-5.22-6.62-7.45-8.12-2.24Z"/><text class="cls-4" transform="matrix(-1.12, 0.28, 0.24, 0.97, 180.48, 151.62)">O</text><path class="cls-5" d="M103.46,118.5a19.26,19.26,0,0,0,5.46,12.64,39.29,39.29,0,0,0,7,5.31l10.41,6.7c4.53,2.92,10,5.94,15,3.91"/><path class="cls-5" d="M99.25,118.5c.85,10.87,7.36,16.94,16.07,22.55,7.92,5.1,17.11,13.16,27.18,10.08,5.17-1.58,3-9.72-2.24-8.12-6.58,2-14-4.94-19.2-8.27-6.39-4.11-12.73-7.92-13.38-16.23-.42-5.37-8.85-5.42-8.42,0Z"/><path class="cls-5" d="M112.43,118.13,124.66,129c.92.82,2.09,1.7,3.26,1.33a4.69,4.69,0,0,0-1-3.11"/><path class="cls-5" d="M109.46,121.11l9.17,8.17c2.68,2.39,5.39,5.57,9.3,5.28a4.28,4.28,0,0,0,4.21-4.21,10,10,0,0,0-1.53-5.24c-2.9-4.56-10.19-.34-7.27,4.25a1.05,1.05,0,0,1,.38,1l4.21-4.21c-.71.05-2.38-2-2.9-2.43L122,121l-6.55-5.83c-4-3.6-10,2.34-6,6Z"/><path class="cls-5" d="M113,119.19q1,3.62,2.18,7.21a11,11,0,0,0,1.84,3.85c2.07,2.43,5.89,2.8,7.88,5.3.86,1.08,1.29,2.46,2.24,3.46a8.6,8.6,0,0,0,4,2q4.54,1.31,9.18,2.26c2.75.56,5.86,1,8.12-.7a8.06,8.06,0,0,0,2.8-5c1.52-7.49-2.32-15-6.62-21.29a19.36,19.36,0,0,0-4.31-4.91,27.94,27.94,0,0,0-6.23-2.94,42.36,42.36,0,0,1-10.52-6.16c-3.18-2.55-6.67-5.77-10.69-5.08a8.05,8.05,0,0,0-5.84,5.45,17.62,17.62,0,0,0-.42,8.29,45.1,45.1,0,0,0,2,8.48c1,2.94,2.5,6,5.2,7.52s6.11,1.34,9.28,1.36A47.69,47.69,0,0,1,135.61,130a51.44,51.44,0,0,0-20-23.06,81.68,81.68,0,0,0,12.16,14"/><path class="cls-5" d="M109,120.31c1.85,6.44,3,12.53,9.29,15.89,3,1.63,4.06,4.08,6.51,6.23,2.66,2.33,6.51,3,9.84,3.85,5.64,1.39,12.64,3.33,17.36-1.24s4.43-12.3,2.76-18c-1.84-6.34-5.75-13.71-10.8-18.12-2.75-2.41-6-3.35-9.31-4.81a52.51,52.51,0,0,1-10.51-6.77c-4.62-3.56-10.36-6.21-15.87-2.73s-6.55,10.36-5.81,16.34c.79,6.39,2.64,14.85,8.25,18.88,2.75,2,6,2.55,9.28,2.68,5,.2,9.63.34,14.51,1.6,3.82,1,6.23-2.94,4.76-6.19a57.1,57.1,0,0,0-21.5-24.57c-3.43-2.2-8.21,2.28-5.76,5.76a94.51,94.51,0,0,0,12.82,14.83c4,3.7,9.93-2.25,6-6a84.08,84.08,0,0,1-11.51-13.13l-5.76,5.76A49.28,49.28,0,0,1,132,132.12l4.76-6.19c-5.61-1.45-11-1.67-16.75-1.9-6.68-.27-8-7-9-12.53-.46-2.63-1.14-6.57.78-8.75,2.69-3.06,5.92.17,8.24,2a58.94,58.94,0,0,0,13.79,8c5.86,2.46,9.19,7.61,11.69,13.34,1.29,3,2.62,7.08,1.72,10.3-1.14,4.08-4.42,3.09-7.59,2.4-2.58-.56-7.65-1.09-9.63-3-1.5-1.47-2.08-3.47-3.89-4.82s-4-1.8-5.5-3.34c-2-2.12-2.7-6.78-3.5-9.54-1.5-5.2-9.63-3-8.12,2.24Z"/><text></text><path class="cls-5" d="M92.05,116.23a409.49,409.49,0,0,0,61.12,117.54c19.82-32.59,39-65.62,55.53-100,4.46-9.29,8.82-19.55,6.49-29.59s-14.73-18-23.23-12.22"/><path class="cls-5" d="M88,117.35a417.68,417.68,0,0,0,61.54,118.54c1.85,2.49,5.5,2.92,7.27,0,18.32-30.15,36.13-60.65,51.77-92.3,6.36-12.88,15.88-29.38,9.46-44-4.6-10.47-17.63-17.68-28.21-11.27-4.63,2.81-.4,10.09,4.25,7.27S204,95,207.49,98.7c4.78,5,4.72,12.15,3.17,18.54-3.31,13.61-11.55,26.76-18,39.09-13.42,25.64-28.1,50.58-43.12,75.31h7.27A410.76,410.76,0,0,1,96.11,115.11c-1.69-5.12-9.83-2.93-8.12,2.24Z"/><path class="cls-5" d="M125.81,140.82c2.23,9,9.37,15.83,16.18,22.12"/><path class="cls-5" d="M121.75,141.94c2.75,9.93,9.91,17.17,17.26,24,4,3.68,9.95-2.26,6-6-6.25-5.78-12.75-11.8-15.1-20.26-1.45-5.22-9.58-3-8.12,2.24Z"/><path class="cls-5" d="M158.95,154.62a65,65,0,0,0-12,23.08L169.64,159a87.18,87.18,0,0,0,7.33-6.53c2.12-2.2,4-4.63,6.28-6.68,4.08-3.71,9.19-6.06,14.2-8.36l-14.22,26c-3.4,6.21-6.93,12.57-12.36,17.11a38.31,38.31,0,0,0-1.6-18.19,185.09,185.09,0,0,1-12.13,29.91,45.15,45.15,0,0,1-2.45-15.44"/><path class="cls-5" d="M156,151.64a73.88,73.88,0,0,0-13,24.94c-1.29,4.34,4,6.61,7,4.1,8.6-7.11,17.35-14.06,25.79-21.35,3.78-3.27,6.77-7.25,10.47-10.58s8.71-5.57,13.35-7.7l-5.76-5.76L181,158.65c-3.72,6.79-7.24,13.65-13.12,18.85l7.19,3a44.39,44.39,0,0,0-1.75-19.31,4.25,4.25,0,0,0-8.12,0,188.79,188.79,0,0,1-11.71,28.91l7.7,1a46.15,46.15,0,0,1-2.3-14.32c0-5.42-8.44-5.43-8.42,0a53.87,53.87,0,0,0,2.6,16.56c1,3.23,6,4.41,7.7,1a202.28,202.28,0,0,0,12.56-30.92H165.2a38.78,38.78,0,0,1,1.45,17.07c-.51,3.94,4.78,5.11,7.19,3,5.91-5.22,9.74-12,13.49-18.83l13.75-25.1c2.14-3.91-2-7.47-5.76-5.76a64.38,64.38,0,0,0-12.95,7.28c-4.23,3.28-7.37,7.67-11.34,11.24-8.69,7.8-18,15-27,22.43l7,4.1a63,63,0,0,1,10.87-21.22c3.32-4.21-2.6-10.22-6-6Z"/><path class="cls-5" d="M104.76,133.1c.76,6.31,5.09,11.53,9.17,16.41,8.49,10.15,16.83,20.87,20.89,33.47a55,55,0,0,0-.09-35.85,65.42,65.42,0,0,1,7.61,3.84c2.2,1.3,4.41,2.81,5.62,5.07s1.06,5.42-1,7c-2.82,2.18-7,0-9.29-2.69s-4.26-6.16-7.67-7.21c-2.43-.75-5-.06-7.59-.09s-6.2-.25-6.9,2.28c-.43,1.56.71,3.07,1.7,4.35,4.78,6.16,7.68,13.54,11.29,20.46s8.3,13.72,15.25,17.25a26.22,26.22,0,0,0,6.35-19.3l-2.48,12.48a5.5,5.5,0,0,1-3.71-3.87c2.52-2.65,7.17.1,8.46,3.51s1,7.37,2.8,10.54a4,4,0,0,0,2.92,2.24c1.46.1,2.67-1.05,3.65-2.14a87.87,87.87,0,0,0,16.64-27.08,124.28,124.28,0,0,0-23.47,35.61,9.42,9.42,0,0,1,6.22-5.39,40.72,40.72,0,0,0-8.69,18.82c-.87-12.16-16.61-19.19-17.44-31.35"/><path class="cls-5" d="M100.69,134.22c1.55,9.23,8.46,15.94,14.1,22.94,6.58,8.17,12.57,16.92,16,26.93a4.25,4.25,0,0,0,8.12,0,60.53,60.53,0,0,0-.09-38.09l-6.19,4.76a62.73,62.73,0,0,1,7.61,3.84,15.29,15.29,0,0,1,2.9,2c1.85,1.87,1,2.78-.77,2.19s-3.06-3.29-4.21-4.66a17.13,17.13,0,0,0-4.76-4.17c-3.83-2.09-8.55-1.35-12.72-1.17-3.47.15-7.19.87-8.75,4.38-2,4.46,1.33,7.84,3.65,11.31a121,121,0,0,1,7.47,14c4.39,8.94,9.68,17.56,18.64,22.5,1.51.83,3.91.79,5.1-.66a31.69,31.69,0,0,0,7.59-22.28c-.24-4.5-7.3-6-8.27-1.12l-2.48,12.48,6.19-2.52L148,185.57l-1.94,4.76c2.42-1.84,3.28,5.26,3.49,6.35a16.59,16.59,0,0,0,2.76,7.25c3,3.87,7.73,4.08,11.37,1,8.69-7.45,14.64-19.58,18.78-30,1.58-4-4.32-7-7-4.1a132,132,0,0,0-24.13,36.46c-2.15,4.85,4.74,9.16,7.27,4.25a6.21,6.21,0,0,1,3.7-3.46l-4.1-7a47.44,47.44,0,0,0-9.77,20.68l8.27,1.12c-.7-6.24-3.6-11-7.51-15.77-3.77-4.61-9.24-9.32-9.93-15.59-.59-5.33-9-5.39-8.42,0,.68,6.23,3.58,11,7.48,15.77,3.77,4.61,9.25,9.33,10,15.59.49,4.3,7.28,6.2,8.27,1.12a38.8,38.8,0,0,1,7.6-17c2.34-2.94.31-8.57-4.1-7a14.67,14.67,0,0,0-8.74,7.33l7.27,4.25a125.32,125.32,0,0,1,22.82-34.76l-7-4.1a86.47,86.47,0,0,1-8,15.42,80.34,80.34,0,0,1-5.34,7.26c-.4.49-2.14,2.9-2.18,2.92-.29.09-.77-2-1-3-1-4.34-1.4-8.36-5.07-11.34-3.17-2.57-7.53-3.4-10.93-.82-1.37,1-2.67,2.92-1.94,4.76,1.19,3,2.66,5,5.64,6.39,2.28,1,5.61.4,6.19-2.52l2.48-12.48-8.27-1.12a23,23,0,0,1-5.12,16.32l5.1-.66c-10-5.52-14-16.6-18.95-26.25-1.14-2.23-2.34-4.43-3.69-6.54-.63-1-1.4-2.72-2.39-3.41l-1-1.35q-2.06,1.55-.46,1.13c1,.67,5.72-.28,6.84-.29,3.07,0,4.47,1.33,6.32,3.62,2.64,3.26,5.39,6.35,9.71,7.25a8.67,8.67,0,0,0,9.74-4.76c4.65-10.1-7.93-16.45-15.2-19.65-3.06-1.35-7.47.92-6.19,4.76a52.73,52.73,0,0,1,.09,33.61h8.12c-3.19-9.42-8.24-17.82-14.24-25.7-5.63-7.4-14.21-14.64-15.81-24.17-.9-5.33-9-3.07-8.12,2.24Z"/><path class="cls-5" d="M138.47,108.47,125,95.12a1,1,0,0,0-1.47,1.47L137,109.94a1,1,0,0,0,1.47-1.47Z"/><path class="cls-5" d="M140.39,104.63c-2.65-4.21-6.91-6.51-11.1-9a61.17,61.17,0,0,0-16-7,1,1,0,0,0-.55,2,101.27,101.27,0,0,1,32.42,16.31c.93.7,2.18-.9,1.26-1.63a87.69,87.69,0,0,0-14.88-9.64c-.87-.45-2,.5-1.42,1.42A25.26,25.26,0,0,0,139.7,106a1,1,0,0,0,1-1.79l-7.58-5a1.05,1.05,0,0,0-1.53,1.17,9.5,9.5,0,0,0,2.7,4.74,1,1,0,0,0,1.47-1.47L132,99.77l-1.47,1.47,2.93,2.74c.72.67,2.09,0,1.74-1-3.75-11.07-19.73-20.6-29.63-11.07-1.69,1.62-5.68,7.76-1.32,8.53,2.24.4,5.13-2.66,6.71-4a22.85,22.85,0,0,1,2.38-2.12c2-1.21,6.76-1.2,8.74.1a23.06,23.06,0,0,1,5.69,6.17l1.17-1.53a12.83,12.83,0,0,1-7.63-5.42l-1.63,1.26,11.26,9.95c.85.75,2.29-.21,1.63-1.26a46,46,0,0,0-9.38-10.85c-.84-.71-2.33.21-1.63,1.26a21.36,21.36,0,0,0,11.23,8.74,1.05,1.05,0,0,0,1.32-1c.41-3.15-1.5-5.08-4.28-6.25-2.4-1-4.79-1.67-7-3.07a16.5,16.5,0,0,0-5.59-2.64c-9-1.75-14.07,7.58-17,14.34l1.9.8a92.14,92.14,0,0,1,5.39-12.06l-1.9-.25a9.47,9.47,0,0,1,.26,6.53,1,1,0,0,0,1.9.8,13.69,13.69,0,0,0,1.24-3.21q.22-1.06.5-2.1,5-1,5.23,2.63l1.53-1.17c-3.56-1.92-7.19-.38-9,3.13-2.51,4.79-1.45,11.21.4,16,.4,1,2.05,1,2-.28a64.48,64.48,0,0,0-3.17-19.45c-.29-.88-1.85-1.09-2,0l-1.85,12.91c-.18,1.29,1.73,1.89,2,.55a32.3,32.3,0,0,0,.55-9.67,1,1,0,0,0-2-.28q-2.77,8.72-4.89,17.62l2,.28q1-8.68,1.29-17.4H99.42l2,15.48a1,1,0,0,0,2.08,0,66.3,66.3,0,0,0-1.45-16.12c-.24-1.13-2.17-.9-2,.28a66.86,66.86,0,0,0,3.46,15.06c.37,1,2.15,1,2-.28a37.23,37.23,0,0,0-4.1-14.26,1,1,0,0,0-1.79,0,25.19,25.19,0,0,0-2,6.56l2,.28L98.51,95.38l-2,.28q2.16,6.2,4.38,12.38a1.06,1.06,0,0,0,1.74.46,8,8,0,0,0,2.56-4.39c.31-1.18.33-2.42.67-3.59,1.16-4,4.92-3.09,8.06-2.21,2.95.82,10.56,3.81,12.89.66a1,1,0,0,0,0-1,21.8,21.8,0,0,0-15.41-9.29c-1.15-.09-1.44,1.87-.28,2a19,19,0,0,1,10.41,4.85l1-1.74A70.48,70.48,0,0,1,110.1,89.5l-.52,1.94a23.18,23.18,0,0,1,9.59,2.09l.52-1.94a33.66,33.66,0,0,1-7.08-1,1,1,0,0,0-.55,2,35.75,35.75,0,0,0,7.63,1.08c1,0,1.48-1.51.52-1.94a26,26,0,0,0-10.63-2.37c-1,0-1.49,1.5-.52,1.94a73.62,73.62,0,0,0,12.89,4.49A1,1,0,0,0,123,94a20.74,20.74,0,0,0-11.33-5.39l-.28,2a15.33,15.33,0,0,1,7.75,2.92c.36.25,5.32,3.72,5.25,4.56s-13.29-3.12-14.45-3.2c-7.54-.46-4.72,8.54-8.78,12l1.74.46q-2.22-6.18-4.38-12.38c-.36-1-2.17-1-2,.28l1.18,11.09c.11,1.06,1.84,1.53,2,.28a22.15,22.15,0,0,1,1.79-6.06H99.65a34.23,34.23,0,0,1,3.82,13.21l2-.28a64.41,64.41,0,0,1-3.39-14.51l-2,.28A64,64,0,0,1,101.46,115h2.08l-2-15.48a1,1,0,0,0-2.08,0q-.27,8.74-1.29,17.4c-.14,1.17,1.77,1.4,2,.28q2.12-8.9,4.89-17.62l-2-.28a29.93,29.93,0,0,1-.47,9.12l2,.55L106.39,96h-2a62.74,62.74,0,0,1,3.1,18.9l2-.28a22.3,22.3,0,0,1-1.73-7.74c-.06-2.69.72-12.55,7.3-9a1.05,1.05,0,0,0,1.53-1.17c-.66-2.88-2.41-7.21-6.27-6.16-3.48.95-3.11,5.84-4.5,8.35l1.9.8a10.09,10.09,0,0,0-.26-7.64,1.05,1.05,0,0,0-1.9-.25,96,96,0,0,0-5.6,12.55c-.4,1.09,1.42,1.88,1.9.8,2.65-6,7.15-15.33,15.41-13.26,2.56.64,4.63,2.68,7,3.81,2.76,1.34,8.27,1.52,7.69,6l1.32-1a19,19,0,0,1-10-7.79l-1.63,1.26a44.2,44.2,0,0,1,9.05,10.43l1.63-1.26L121.1,93.43c-.83-.74-2.34.23-1.63,1.26a15.09,15.09,0,0,0,8.87,6.38c.82.23,1.71-.76,1.17-1.53-2.29-3.31-5.37-7.1-9.17-8.75-4.58-2-7,.82-10.27,3.66-1,.84-3,3.06-4.35,3.23-2.24.3-.13-2.86.82-3.88a12.67,12.67,0,0,1,9.94-3.74c6.94.46,14.48,7,16.68,13.46l1.74-1L132,99.77c-1-.91-2.42.52-1.47,1.47l3.85,3.85,1.47-1.47a6,6,0,0,1-2.17-3.82L132.12,101l7.58,5,1-1.79A23.12,23.12,0,0,1,131.89,96l-1.42,1.42a85.12,85.12,0,0,1,14.46,9.31l1.26-1.63a102.84,102.84,0,0,0-32.92-16.52l-.55,2a55.69,55.69,0,0,1,14,6c4.28,2.44,9.16,4.81,11.86,9.1.71,1.13,2.51.09,1.79-1Z"/><path class="cls-5" d="M163.5,159.54c.84-9.25-3-18-8.16-25.46-5.32-7.76-12.18-14.76-14.6-24.09-2.2-8.49-6.28-15.18-14.66-18.75-8.71-3.72-18.34-2.09-26.37,2.56l8.53,8.53c4-8,14.78-1.5,20,1.54,7,4,13.24-6.73,6.3-10.77-6.33-3.69-13.27-7.39-20.84-7-6.72.35-13.15,3.8-16.23,9.92-2.72,5.41,2.89,11.8,8.53,8.53s13-4.51,18.46.08c2.48,2.1,3.23,4.71,4,7.73a48.48,48.48,0,0,0,3.8,10.2c6.22,12,20.07,22.2,18.73,37-.73,8,11.75,7.94,12.47,0Z"/></svg>