<svg id="Layer_1" data-name="Layer 1" xmlns="http://www.w3.org/2000/svg" viewBox="0 0 295.83 288"><defs><style>.cls-1{font-size:209px;stroke:#f6882e;font-family:Kalam-Regular, Kalam;}.cls-1,.cls-3{fill:#f6882e;}.cls-2{fill:#6b7c8e;}</style></defs><title>Artboard 4 copy 2</title><text class="cls-1" transform="translate(101.22 -91.92)">?</text><path class="cls-2" d="M256.91,74.47c2.23-8.22,3.05-16.6,1.13-24.88a31.92,31.92,0,0,0-12.26-17.92,33.59,33.59,0,0,0-16.93-10.09q-15.89-4-36.41,5.33a106.49,106.49,0,0,0-23.36,14.68l-20.43,5a112.86,112.86,0,0,0-33.44-23.87Q94.7,13.36,78.81,17.36T54.85,38a48.56,48.56,0,0,0-3.69,34q3,12,11.94,23.84a679.19,679.19,0,0,0,92.11,168.6c32.86-54,64.71-108.81,92.07-165.84,1.72-3.58,3.42-7.24,5-11a58.59,58.59,0,0,0,4.23-11.42C256.65,75.66,256.78,75.07,256.91,74.47ZM67.14,42.71Q72.51,31,80.78,28.86t20.48,2.74A115.8,115.8,0,0,1,125.9,45.3c2.25,1.61,4.46,3.34,6.62,5.17L118,54a70.23,70.23,0,0,1-11.8-7.62c-5.73-4.58-12-10.48-19.45-8a12.2,12.2,0,0,0-6.35,5.23c-3.22,5.19-3.11,11.31-2.29,17.1.13.95.3,1.89.47,2.84L65,66.89Q62.25,53.43,67.14,42.71Z"/><path class="cls-2" d="M268.68,77.72c3.62-14.1,4.26-30.14-3.76-43-3.43-5.48-8.25-9.86-12.71-13.94a48.1,48.1,0,0,0-17.85-10.36C208.2,2,180.29,17,160.45,33l5.39-3.14-20.43,5,11.88,3.14C139.3,20,113.88,3.13,87.41,4c-25.88.81-45.13,20.85-49.09,45.92-2.25,14.3.57,28.28,7.19,41.09a51.31,51.31,0,0,0,4.76,7.92,24.82,24.82,0,0,1,3.58,6.91q3.86,10,8,19.85a697.7,697.7,0,0,0,34.62,71,683.72,683.72,0,0,0,48.15,74c5.38,7.21,15.94,8.47,21.09,0,19.08-31.4,37.82-63,55.55-95.2q13.17-23.92,25.52-48.28c4-7.92,7.94-15.87,11.74-23.89,3.9-8.23,8.08-16.65,10.12-25.55,1.48-6.42-2-13.22-8.53-15-6.16-1.69-13.53,2.07-15,8.53-1.72,7.49-5.1,14.36-8.4,21.26q-5.79,12.1-11.87,24.06-12.33,24.36-25.58,48.25c-17.45,31.61-35.87,62.67-54.63,93.52h21.09a683.2,683.2,0,0,1-57.52-91.25Q95.6,143,84.91,117.89c-3.31-7.79-6.36-15.69-9.41-23.58-3.25-8.42-9.61-15-12.14-23.91a37.64,37.64,0,0,1,.53-22.46,39,39,0,0,1,4.81-9.56,11.48,11.48,0,0,1,1.94-2.44c.62-.65,1.24-1.28,1.89-1.9.21-.2,1.52-1.36.56-.61,5-3.93,9.77-5.08,15.82-5.07,7.56,0,15.38,2.52,22.37,5.91a96.48,96.48,0,0,1,20.14,12.94c3.63,3.07,7,7.48,11.08,9.87,3.31,1.93,6.93,1.75,10.52,1,4.3-1,8.57-2.08,12.85-3.12,5.35-1.3,8.64-2.34,13.25-5.84a89.11,89.11,0,0,1,23.57-13.26c7.34-2.6,15.69-4.17,22.23-2.65a22.86,22.86,0,0,1,8.89,3.89A49.46,49.46,0,0,1,243,45.74c5.51,7.33,4.34,17.11,2.18,25.49C241.22,86.45,264.77,92.95,268.68,77.72Z"/><path class="cls-2" d="M77.68,48.87A40.71,40.71,0,0,1,81,43a30.35,30.35,0,0,1,2.29-2.26c-1.43,1.41,2-.57-.33.25.29-.11,3.13-.67,1.93-.52s2,0,2.32,0a27.91,27.91,0,0,1,6.59,1.42c10.86,3.38,21.41,10,30.09,17.22l5.39-20.41-14.53,3.53,9.41,1.23c-12.66-6.69-23.92-21.67-39.92-17C66.14,31.69,64,51.06,66.79,66.83l8.53-15-13.58,3.3,15,8.53c-.9-4.88-.94-10.41.93-14.78,2.6-6.05,1.8-13.09-4.38-16.71-5.14-3-14.09-1.71-16.71,4.38C51.83,47.66,51,58.26,53.2,70.14c1.22,6.63,9.06,10,15,8.53l13.58-3.3c6.84-1.66,9.64-8.68,8.53-15-.44-2.48-.92-6.18-.12-9-.06.2,1-2.3.52-1.26-.4.86-2.92-1.25.32,0-2.07-.79,1.57,1.24,1.78,1.37a29.33,29.33,0,0,1,2.39,1.72C98.94,56,102.49,59,106.47,61.5c4.7,2.95,9.08,5.39,14.84,4.26,1.33-.26,2.65-.64,4-1l10.48-2.55c8.42-2,12.47-14.49,5.39-20.41-12.87-10.76-28.88-21.43-45.62-24.73-7.94-1.56-16.23-1.63-23.58,2.18-7,3.65-12,10.22-15.35,17.25C53.76,42.49,55,49.73,61,53.25,66.31,56.37,74.83,54.84,77.68,48.87Z"/><path class="cls-3" d="M216.61,66.13q-4.87-10-14.45-12.45t-22,3.21a67.61,67.61,0,0,0-19.47,13.72l-4.17,1a70.14,70.14,0,0,0-22.92-17.31q-12.38-5.63-22-3.21T97.22,63.58A29.29,29.29,0,0,0,95,84.11,40,40,0,0,0,101.83,98a412.16,412.16,0,0,0,55.95,105.75c19.45-32.59,38.28-65.62,54.48-100a96.54,96.54,0,0,0,5.2-12.83,34,34,0,0,0,1.38-4.23A29.29,29.29,0,0,0,216.61,66.13Z"/><path class="cls-3" d="M218.77,64.87c-6-11.57-17.32-16.3-29.94-13.56a56,56,0,0,0-19.94,9.22c-3,2.12-5.58,5.08-8.62,7.06a13.3,13.3,0,0,1-4.37,1.65l2.43.64C148.83,59.57,136.24,50.12,122,48.23c-13.7-1.81-24.62,5.94-28.83,18.89a32.33,32.33,0,0,0,.71,21.54c1.43,3.73,3.63,6.87,5.47,10.38,2,3.85,3.24,8.18,4.83,12.23a419,419,0,0,0,21,45.34A415.6,415.6,0,0,0,155.62,205a2.54,2.54,0,0,0,4.32,0c14.1-23.65,27.88-47.49,40.56-71.93,6-11.47,12.08-23,17-35,4.66-11.34,6.48-21.71,1.27-33.21-1.33-2.93-5.64-.39-4.32,2.52,5.81,12.81.44,25-5.16,36.79-5.28,11.16-10.86,22.18-16.63,33.09-11.69,22.1-24.23,43.73-37,65.2h4.32A412.52,412.52,0,0,1,107,104.91a59.94,59.94,0,0,0-5.12-11.25,33,33,0,0,1-5.26-14.77c-.69-8.76,3.23-19.18,11.2-23.6,16.24-9,36.52,6.81,46.94,18.13a2.51,2.51,0,0,0,2.43.64,14.5,14.5,0,0,0,7.9-4.16,63.52,63.52,0,0,1,16.34-10.85c12.55-5.66,26.16-4.89,33,8.34C215.93,70.26,220.24,67.73,218.77,64.87Z"/></svg>