<svg id="Layer_1" data-name="Layer 1" xmlns="http://www.w3.org/2000/svg" viewBox="0 0 295.83 288"><defs><style>.cls-1{font-size:202.71px;}.cls-1,.cls-3,.cls-5{fill:#6b7c8e;}.cls-1,.cls-4,.cls-5{font-family:Kalam-Light, Kalam;}.cls-2,.cls-4{fill:#f6882e;}.cls-4{font-size:92.84px;}.cls-5{font-size:119.15px;}</style></defs><title>Artboard 4 copy</title><text class="cls-1" transform="matrix(-0.26, 0.61, 0.84, 0.55, -49.04, 130.7)">c</text><path class="cls-2" d="M223.37,149.05a23.73,23.73,0,0,0-14.81,12.44c-1.39,2.89,2.92,5.42,4.32,2.52a18.85,18.85,0,0,1,11.82-10.14c3.08-.9,1.77-5.73-1.33-4.82Z"/><path class="cls-2" d="M251.44,158.9c4.81,2.9,6.29,8.4,7.52,13.55,1.58,6.56,2.89,13.19,4.05,19.84a362.89,362.89,0,0,1,4.71,40.5c.2,3.2,5.2,3.22,5,0a373.68,373.68,0,0,0-5.57-45.62c-2-10.56-2.9-26.39-13.19-32.58-2.76-1.66-5.28,2.66-2.52,4.32Z"/><path class="cls-2" d="M60.42,138.55a151.51,151.51,0,0,0-33.22,72.24c-.52,3.15,4.3,4.5,4.82,1.33a146.72,146.72,0,0,1,31.94-70c2-2.46-1.47-6-3.54-3.54Z"/><path class="cls-2" d="M90.29,148.36c13.79,12.61,16.6,31.48,19,49.08.43,3.17,5.25,1.82,4.82-1.33-2.53-18.5-5.83-38.07-20.29-51.29-2.37-2.17-5.92,1.36-3.54,3.54Z"/><path class="cls-3" d="M110.76,247.63c18.89-3.15,37.78,1.84,56.73,1.1s38-7.34,57.12-3.84c3.15.57,4.49-4.24,1.33-4.82-19.73-3.61-38.8,2.89-58.45,3.66-19.44.76-38.66-4.15-58.06-.92-3.17.53-1.82,5.35,1.33,4.82Z"/><path class="cls-2" d="M270.69,230.33a106,106,0,0,1-44.57-1.71c-3.12-.79-4.45,4-1.33,4.82A112.16,112.16,0,0,0,272,235.15c3.16-.56,1.82-5.37-1.33-4.82Z"/><path class="cls-2" d="M27.57,213.89c13.19,3.28,27,.48,40.27-1.07l44.2-5.14c3.16-.37,3.2-5.37,0-5L69.8,207.59c-13.3,1.55-27.67,4.77-40.9,1.47-3.12-.78-4.45,4-1.33,4.82Z"/><text class="cls-4" transform="translate(196.34 119.86) rotate(65.38) scale(1.16 1)">O</text><text class="cls-5" transform="translate(96.26 92.27) rotate(51.34) scale(1.16 1)">O</text><path class="cls-3" d="M177.38,106.06c-6.06,6.87-13.65,6.59-22.12,5.93-6.62-.51-18,.59-22.3-5.6-1.83-2.62-6.17-.12-4.32,2.52,5.51,7.89,16.23,7.27,24.83,7.93,10.4.81,20,1.19,27.45-7.26,2.12-2.4-1.4-6-3.54-3.54Z"/><path class="cls-3" d="M172.1,99.5l-9.82.77c-1.49.12-7.27,1.41-8.5.33v3.54l1.59-1.29c2.94-1.2,1.66-6-1.33-4.82a9,9,0,0,0-3.8,2.58,2.54,2.54,0,0,0,0,3.54c2.45,2.17,5.17,1.67,8.25,1.43l13.6-1.07c3.19-.25,3.21-5.25,0-5Z"/><path class="cls-3" d="M165.91,98.85c-1.54,1.15-3.07,2.29-4.64,3.4-.37.27-3.4,2.14-2.38,1.9s-1.71-.41-1.79-.42a25.14,25.14,0,0,0-5.06-.4,16.81,16.81,0,0,0-4.77.92q-4.15,1.44-1.36.82,2.29-.15-.43-.7a41.8,41.8,0,0,0-7.75-3.46l-1.27-.73a2.84,2.84,0,0,1,.9,1.69c1.41,1.16-.15.8,1.38-.48A28.74,28.74,0,0,1,143.33,98c3.9-2.17,8.4-4.29,12.82-3.12a65.66,65.66,0,0,0,18.09,2.27c.26,0,4.21.14,4.29,0-.9,1.17-1.51-1.77-1.88-1.84-1.07-.19.37-.45-.45-.15a17.3,17.3,0,0,0-1.53,1.87,27.58,27.58,0,0,1-6.71,5.42c-2.34,1.23-1.06.94-3.16-.6a76.4,76.4,0,0,0-16.15-9.21L151,111a44.78,44.78,0,0,1,25.37-5L173.74,86.3a79.14,79.14,0,0,1-15.82,3.49c-5.37.56-10,4.2-10,10,0,5,4.59,10.56,10,10a104.69,104.69,0,0,0,21.14-4.21c11-3.51,8.5-18.76-2.66-19.64a64,64,0,0,0-35.46,7.77c-8.39,4.51-4.94,15.23,2.39,18.28,6.69,2.79,11.63,8.91,18.75,10.68,9,2.22,17.07-2.93,23.61-8.51,5.89-5,11-11.88,10.73-20-.37-9.43-7.45-15.78-16.51-16.79-3-.33-5.88-.09-8.86-.14-4-.07-7.45-1.18-11.29-2.07-8.5-2-16.22.7-23.89,4.26C121.72,86,109,105.52,125.78,117c3.77,2.59,8.37,4.24,12.59,5.92,4.51,1.79,9.53,2.86,14.12.65,2.2-1.06,1.07-.36.35-.36a14.65,14.65,0,0,1,2.19.37,21.25,21.25,0,0,0,8.53,0c4.7-1.19,8.65-4.67,12.45-7.51,4.32-3.23,6.53-8.65,3.59-13.68-2.49-4.26-9.33-6.84-13.68-3.59Z"/><path class="cls-3" d="M143.21,114.49c-6.72,7.07-13.59,14.46-18.24,23.11a49.42,49.42,0,0,0-5.12,13.52c-.77,3.87.06,9.46-1.94,12.84l18.63,5q-.07-2.68-.41-.12a3.23,3.23,0,0,1,1.17-1.29,46.66,46.66,0,0,0,4.09-3.16,121.11,121.11,0,0,0,10.16-8.24A96.67,96.67,0,0,0,161.18,146c1.7-2.09,3.77-6.06,6.27-7.18-.59.27-1.51-.65.9.87,1.13.72,2.22,1.56,3.27,2.38a94.79,94.79,0,0,1,9.89,9,89.52,89.52,0,0,1,7.07,8.22c1.34,1.79,2.6,3.64,3.8,5.52q.9,1.41,1.76,2.85,1.74,3.94,1.16-2.38l3.59-3.59c-2.44,1.81,3.7.69,4,.58.7-.28.34.87.56.05.31-1.15-1.12-4.54-1.49-5.73a22.84,22.84,0,0,0-8.81-12.34c-7.77-5.52-17.8-8.81-26.42-12.83C162,129.28,155.63,129.88,153,135c-6.64,13.08,2.11,23.15,11.63,31.39a338.79,338.79,0,0,0,29.67,22.88c4.06,2.79,10.12,1.14,12.9-2.58,3.17-4.24,2.47-9.17-.78-13.13-8-9.74-26.39-25.38-39.78-17.54-7.33,4.29-7.89,13-7.25,20.54a164.46,164.46,0,0,0,4.13,25.16c1.29,5.25,7.2,8.39,12.3,7,5.73-1.58,7.77-6.94,7-12.3a180.9,180.9,0,0,0-11.91-43.07c-1.72-4.15-4.84-7.34-9.64-7.34-4.2,0-8.75,3.08-9.64,7.34q-4.09,19.51-6.89,39.25l19.64,2.66a174.21,174.21,0,0,0-.38-27.64c-1-10.85-16.27-14-19.64-2.66l-8.6,29L155,199.3l3.91-28.38c1.73-12.58-14.71-17.65-19.29-5.32a193.49,193.49,0,0,0-5.92,18.88C130.51,197,149.62,202.23,153,189.8A134.29,134.29,0,0,0,157.77,153c-.1-9.28-14.28-14.45-18.63-5a204.84,204.84,0,0,1-26,42.43l16.71,9.73A122.62,122.62,0,0,0,136.54,177c1.31-7-4.51-14.92-12.3-12.3-3.82,1.28-7,3.31-8.74,7l18.28,7.71,1.19-3.59-19.29-5.32a60.18,60.18,0,0,0-1.91,27.14c.57,4.07.69,2.92-.64,6.59a39.56,39.56,0,0,0-1.83,16.66c.48,5.51.86,12.3,3.53,17.28,2.89,5.39,8.7,8.55,14.78,6.79,6.71-1.94,8.76-8.11,10.65-14.07,3.67-11.6,9.57-24.32,8.78-36.7-.65-10.26-12.85-13.14-18.63-5a47.55,47.55,0,0,0-7.89,18.29c-.88,4.39.58,8.94,4.6,11.29,3.52,2.06,9.4,1.86,12.12-1.56l4.53-5.7c3.36-4.23,4.13-10,0-14.14-3.48-3.48-10.77-4.25-14.14,0l-4.53,5.7,16.71,9.73a33.46,33.46,0,0,1,5.87-13.51l-18.63-5c.4,6.24-1.94,12-3.8,17.9l-2.85,9L121,225.6c-.37,1.18-2.6,4.59-.53,2.47l4.41-2.57-1.13.4H129l3.69,3.52-.25-1.07a14.23,14.23,0,0,0-.61-3.34,49.2,49.2,0,0,1-.73-6.64c-.17-4.9,1.62-8.09,2.73-12.7,1.18-4.91-.59-9.79-.8-14.71A46.3,46.3,0,0,1,135,175.85c3.57-12.46-15.26-17.46-19.29-5.32l-1.19,3.59c-3.52,10.61,13.36,18,18.28,7.71h0l-4.41,2.57,1.23-.41-12.3-12.3a122.62,122.62,0,0,1-6.73,23.08c-3.65,9.11,10.59,17.34,16.71,9.73A224.56,224.56,0,0,0,156.41,158l-18.63-5a113.65,113.65,0,0,1-4,31.52L153,189.8a193.49,193.49,0,0,1,5.92-18.88l-19.29-5.32L135.74,194c-.74,5.34,1.29,10.74,7,12.3a10.15,10.15,0,0,0,12.3-7l8.6-29L144,167.65a174.21,174.21,0,0,1,.38,27.64c-.73,11.07,18,13.89,19.64,2.66q2.81-19.74,6.89-39.25H151.61a180.9,180.9,0,0,1,11.91,43.07l19.29-5.32a134.31,134.31,0,0,1-2.93-15.11c-.32-2.52-.55-5-.7-7.58a12,12,0,0,0-.09-2.92c-.71-1.38.24.46-.33.93l-4.41,2.57c1.7-.7,7.13,3.36,8.77,4.52a47.81,47.81,0,0,1,9.16,8.88l12.12-15.71c-6.87-4.73-13.57-9.7-20-15-3.31-2.73-6.58-5.51-9.75-8.4-1.05-1-2.12-2.48-3.3-3.19-.92-.56-.42-1.58-1.06-.32l-13.68,3.59c7.41,3.45,14.92,6.75,22.25,10.38,1.62.8,3,1.35,3.79,2.84,1.59,3.09,1.7,7,3.32,10.2,3.47,6.88,11.17,11.07,18.81,8.9,9.22-2.62,12.16-12.46,8.24-20.58-6.16-12.74-16.89-24.37-27.9-33.07-6.29-5-13-10-21.51-8.26-7.47,1.5-12,7.13-16.55,12.71a90.94,90.94,0,0,1-17.15,16.36c-6.89,5-14.33,11.35-13.33,20.81s13.21,14.23,18.63,5c4.58-7.76,2.49-16.92,6.32-24.94,3.76-7.86,9.91-14.24,15.84-20.48,8.87-9.32-5.25-23.49-14.14-14.14Z"/><path class="cls-3" d="M134.87,156.33l-1.51-2a11.19,11.19,0,0,0-6-4.6,7.57,7.57,0,0,0-4-.18,7.44,7.44,0,0,0-3.72,1.19l-2,1.56a10,10,0,0,0-2.57,4.41l-.36,2.66a10,10,0,0,0,1.37,5l1.51,2a11.19,11.19,0,0,0,6,4.6,7.57,7.57,0,0,0,4,.18,7.44,7.44,0,0,0,3.72-1.19l2-1.56a10,10,0,0,0,2.57-4.41l.36-2.66a10,10,0,0,0-1.37-5Z"/><path class="cls-3" d="M174.07,179.77,179,204.16l18.28-7.71c-.81-1.42-1.62,1.77-2.86,2h-5.32Q186,195.84,187,197c1.92,5,6.69,8.65,12.3,7,12.44-3.7,19.26-15.94,16.67-28.49-.88-4.26-5.46-7.34-9.64-7.34-4.78,0-7.92,3.22-9.64,7.34-3.54,8.46-.72,19,6.1,25V186.36c-7.26,6.45-5.77,19.87,3.26,24l-3.59-13.68c-4.81,6.62-3.47,16.76,2.78,22,5.51,4.62,14.75,3.41,16.71-4.41l.7-2.78L203,208.84c.44,10-2.06,26.48,8.55,32l5-18.63-98,2.28,5,18.63c10.79-7,23.23-9.6,35.72-11.82,11-2,24.39-5.2,35.07-.26,7.17,3.31,14.37-.7,15-8.63a51.26,51.26,0,0,0-3.33-23.07c-2.56-6.52-8.32-8.74-14.69-6A129.86,129.86,0,0,1,137,203.76L144,220.83a89.9,89.9,0,0,1,38.1-21.28l-7.71-18.28a76.15,76.15,0,0,0-20.06,13.29c-9.57,8.64,4.61,22.75,14.14,14.14a59.85,59.85,0,0,1,16-10.17c10.52-4.68,3-21.2-7.71-18.28a111.29,111.29,0,0,0-46.93,26.42c-6.49,6.1-1.33,16.89,7.07,17.07a153.17,153.17,0,0,0,64.66-13.09l-14.69-6a37.55,37.55,0,0,1,2.61,17.75l15-8.63c-15.28-7.07-31-5.13-47.08-2.35-15.28,2.64-30.68,5.89-43.9,14.43-8,5.18-5.28,18.88,5,18.63l98-2.28c9.51-.22,14.15-13.86,5-18.63,2.4,1.26,2.17,4.79,2,.8-.06-1.62-.14-3.24-.21-4.87l-.47-10.7c-.48-10.93-16.8-14-19.64-2.66l-.7,2.78,16.71-4.41q-2.26-2.26.14,1.77-1.2,2.69.2.47c3-4.08,1-11.58-3.59-13.68,2,.92,2.31,6,.79,7.4,3.85-3.42,3.89-10.73,0-14.14-2.16-1.89-2.09-2.82-1-5.51H196.72a3.75,3.75,0,0,1-2.7,3.88l12.3,7c-3.47-9-12.15-17.14-22-10.63-8.33,5.52-8.91,17.43-4.33,25.46,5.83,10.21,20.47,3.1,18.28-7.71l-4.94-24.39c-1.07-5.3-7.35-8.34-12.3-7-5.51,1.51-8.06,7-7,12.3Z"/><path class="cls-3" d="M218.21,208.16c2.37-5.14,3.78-10.39,3-16.09-.66-4.94-3.3-9.18-8.67-9.82-4.72-.56-9.83,2.23-11,7.16-2.11,9.15-8.84,15.67-15.19,22.17-3.9,4-7.74,8-11.72,11.94-3.54,3.49-6.24,5.3-11.35,4.74-5.38-.58-10,5-10,10,0,5.89,4.61,9.42,10,10,15.85,1.71,25.92-11,35.88-21.18,9.17-9.37,18.63-19.16,21.67-32.35l-19.64-2.66c.27,2,.58,4.08-.29,6-2.25,4.9-1.39,10.77,3.59,13.68,4.31,2.52,11.41,1.34,13.68-3.59Z"/><path class="cls-2" d="M75.49,135.45c.92-7-7.06-12.39-13.37-9.85-7.08,2.85-6,12.13.74,14.4,5.59,1.9,9.42-5.67,5.58-9.58a18.47,18.47,0,0,0-4.89-3.57c-1.19-.61-4-1.2-4.8-2.33-2.25-3.37,4.82-6.34,7.43-6.65,9.33-1.11,21.35,3.22,29.51,7.5,1.66.87,4.26,1.92,3.8,3.73-.54,2.12-4.59,3.74-6.3,4.43-4.36,1.75-9.94,3.18-14.62,2.74-5.11-.49-6.55-3.2-7.55-7.85-.92-4.28-2.78-7.92-6.69-10.14v9.9c5.32-3.33,11.18-2,16.76,0,5.15,1.89,10.91,4,14.87,7.91l2.53-9.58a43.94,43.94,0,0,1-30.65-5.47l-4.42,10.47a105,105,0,0,0,18.28,2.61c7.37.41,7.35-11.06,0-11.46a87.08,87.08,0,0,1-15.23-2.2C60.23,119,56.3,127.61,62,131a56.25,56.25,0,0,0,39.48,6.63c4.33-.83,5.4-6.72,2.53-9.58-5.74-5.7-14-8.94-21.59-11.44-8-2.63-16.62-2.87-23.93,1.7-3.58,2.24-3.84,7.72,0,9.9,2.25,1.28,2.16,7.66,3.42,10a17.45,17.45,0,0,0,7.32,7.14c6.82,3.62,14.92,2.55,22.1.71s14.9-5.13,18.47-11.94c3.86-7.37-.57-14.07-7-17.88-7-4.15-15.83-6.89-23.72-8.56-7-1.49-14.77-2.33-21.5.77-5.92,2.73-11.54,9.63-11.11,16.45a11.63,11.63,0,0,0,4.63,8.23c2.77,2.27,6.68,2.86,9.17,5.39L65.9,129l-.85-.29,3.42,2.63.32,1.78-2.63,3.42L64,135.45c-1,7.29,10.51,7.22,11.46,0Z"/><path class="cls-2" d="M76.36,148.29c2.64,4.94,6.63,9.38,12.68,9l-4.95-2.84c3.65,8.05,10.19,13.73,12,22.68,1.77,8.62,1.39,17.44,4.47,25.8,2.51,6.81,13.1,4.17,11.05-3a52.23,52.23,0,0,0-3.79-9.74c-3.38-6.56-13.27-.77-9.9,5.78a37.1,37.1,0,0,1,2.63,7l11.05-3c-3.26-8.86-2.61-18.35-4.84-27.43-2.27-9.24-9-15.37-12.82-23.78A5.57,5.57,0,0,0,89,145.87c-1.38.08-2.22-2.31-2.79-3.36-3.48-6.51-13.38-.72-9.9,5.78Z"/><path class="cls-3" d="M140.08,117.2c-20.28,9.16-25.34,32.3-28.09,52.24a534.36,534.36,0,0,0-5,75.29c0,3.22,5,3.22,5,0a530.49,530.49,0,0,1,4.1-68.76c2.53-20,5.7-45.07,26.47-54.45,2.93-1.32.39-5.63-2.52-4.32Z"/><path class="cls-2" d="M89.84,193l.45-1.47c1-3.17-1.18-6-4-7a73.81,73.81,0,0,1-10.87-5.28l1.16,9c4.42-4.26,12.08-3.72,17.68-5.32a5.86,5.86,0,0,0,4-7c-.92-4.22-4-6.41-7.24-8.9l-12.42-9.48c-5.86-4.48-11.57,5.47-5.78,9.9l7.76,5.93c1.73,1.32,6.15,3.45,6.62,5.61l4-7c-8.17,2.33-16.24,2-22.74,8.26a5.79,5.79,0,0,0,1.16,9,92.18,92.18,0,0,0,13.61,6.43l-4-7-.45,1.47C76.61,197,87.67,200,89.84,193Z"/><path class="cls-2" d="M60.28,139.52a44.56,44.56,0,0,0-12,19.52c-1.63,5.26,5.84,10,9.58,5.58Q64.38,156.8,71,149.09l-9.58-2.53c1,5.33,1.85,10.67,2.38,16.08s7.65,8.22,10.68,2.89a76.83,76.83,0,0,0,5.79-12.84H69.27l2.88,14.12c.94,4.59,8.46,5.84,10.47,1.37a41,41,0,0,0,2.94-25.89L75.1,146.7l6.33,14.07,3.16,7,1.58,3.52c1.1,2.45.58,4.62,3.26,1.68,2.33-2.55,1.7-1.85-.53-2.08-1-.1-2-.2-3-.27a33.17,33.17,0,0,0-6,.11A18.84,18.84,0,0,0,69,175.63l9.78,4.05c1-8.69-1.11-20.18-11.77-21.29-11.13-1.17-14.69,9.83-21.76,15.65l9,6.94a82.11,82.11,0,0,0,6.09-18.57c1-5.14-5.5-10.24-9.58-5.58C38.9,170.47,35,187.93,31.88,205.29c-.58,3.21,1.5,7.76,5.53,7.25L89.67,206c6.54-.82,15.18-.52,16.59-8.72,1.26-7.34-1.18-16.59-2.94-23.69-1.11-4.46-6.44-5.2-9.58-2.53-7.7,6.57-3.55,15.7-4.05,24.17l9.78-4.05c-2.65-3-1.39-7.19-4.13-10.12-2.26-2.43-5.65-2.73-8.6-1.64-3.58,1.33-6.08,4.6-9.4,6.45a39,39,0,0,1-9.82,3.59A99.13,99.13,0,0,1,57,191.39c-1.14.15-4.1-.15-5,.32q-1.7-.67-.13,1.12a19.56,19.56,0,0,1,2-2.52c6-7.41,12.24-14.61,18.35-21.9l-9.78-4.05A36,36,0,0,1,49.93,189.6c-5.6,5,2.47,12.64,8.1,8.1a23.16,23.16,0,0,1,20.34-4.18V182.47a17.17,17.17,0,0,1-8.19.08L71.56,193c5.13-3.49,10.42-7.23,13.78-12.57a22.25,22.25,0,0,0,3-7.86c.49-2.71-.07-7,2-9.06,5.16-5.28-2.94-13.39-8.1-8.1-4.47,4.57-3.8,9.73-5.16,15.5s-6.8,9.17-11.28,12.21c-3.82,2.6-3.75,9.31,1.37,10.47a30.44,30.44,0,0,0,14.28-.08c5.49-1.33,5.43-9.68,0-11.05-11.33-2.87-22.45-.15-31.49,7.13l8.1,8.1a47.55,47.55,0,0,0,15.79-33.34c.25-4.75-6.6-7.85-9.78-4.05-6.67,8-13.5,15.8-20,23.9-4.85,6-5.46,14.89,3,18,6.63,2.45,15.39.12,22-1.35a56.47,56.47,0,0,0,12.06-4.08,33.23,33.23,0,0,0,5.09-3q1.2-.86,2.34-1.8a13.7,13.7,0,0,0,1.13-1q1.63-1.06-1.31-1l-2.63-3.42c.84,2.06.78,4.38,1.62,6.5a20.75,20.75,0,0,0,4,6.15c3.51,4,9.51.57,9.78-4.05.27-4.46-3.18-12.77.69-16.07l-9.58-2.53c.73,3,1.39,5.94,1.85,9,.41,2.7-.2,6.94.83,9.4q2.74-1.78.55-1.2-1.43.22-2.87.38l-3.94.49L77.83,196l-40.43,5,5.53,7.25c2.73-15.12,5.55-31.45,16-43.4l-9.58-5.58a70,70,0,0,1-4.94,15.84c-2.73,6,3.87,11.17,9,6.94,3.79-3.12,5.74-7.95,9.51-11,5.76-4.62,4.81,5.29,4.45,8.52-.6,5.34,6.46,7,9.78,4.05C83,178.55,100,188.1,99.65,175c-.12-5-4.32-11.06-6.35-15.59L85,140.92c-2.8-6.22-11.71-1.59-10.47,4.42a27.7,27.7,0,0,1-1.79,17.06l10.47,1.37-2.88-14.12c-1.21-5.94-9.34-4.93-11.05,0a60.26,60.26,0,0,1-4.63,10.1l10.68,2.89c-.64-6.42-1.56-12.79-2.79-19.12-.8-4.11-6.85-5.68-9.58-2.53q-6.67,7.72-13.22,15.53l9.58,5.58a32.82,32.82,0,0,1,9.09-14.46c5.37-5.08-2.75-13.18-8.1-8.1Z"/><path class="cls-2" d="M250.4,144.57c-5.31-4.55-10.55-9.2-16-13.64a27.33,27.33,0,0,0-5.72-3.84c-2.49-1.16-5.31-1.45-7.32-3.48l-.51,3.93c3.95-2,8.63-1.94,13-2.34,4.74-.44,9.5-1.2,14.13.3a46.14,46.14,0,0,1,11.22,5.89c4.49,3,5.61,7,6.5,12a2.51,2.51,0,0,0,4.18,1.1c3.15-3.92,3.7-8.51,1.15-12.92a2.52,2.52,0,0,0-4.32,0c-1.66,3.17-2.12,6.46-3.2,9.82-.4,1.24-1.7,5.69-4.38,3.75-.92-.67.09-7,.2-7.78a2.52,2.52,0,0,0-4.18-2.43q-1.74,1.47-3.55,2.85a3.92,3.92,0,0,1-2.73,4.27l3.42.9a6.16,6.16,0,0,1-.2-4.94q1-2.05-2.16,1.25c-2-2.53-5.5,1-3.54,3.54,5.27,6.73,14.1-2.9,9.79-9.09a4.53,4.53,0,0,0-7.5-.08c-2.52,3.26-2.57,8.35-.7,11.84a2.54,2.54,0,0,0,3.42.9c3.12-1.64,5.75-4.78,4.46-8.5-1-2.95-4.36-4.64-7.15-3-2.5,1.5-3.25,5.23-.92,7.23,3.69,3.16,8.24-1.46,10.9-3.66L254.53,136c-.66,4.58-2.32,16.75,5.51,15.69,8.37-1.13,8-12,11-17.63h-4.32a5.81,5.81,0,0,1-.37,6.86l4.18,1.1c-.89-5.1-2.21-9.76-6.3-13.21a48.78,48.78,0,0,0-13.34-7.62c-5.63-2.19-11.14-1.59-17-1-5.29.49-10.67.56-15.49,3a2.52,2.52,0,0,0-.51,3.93c3.59,3.63,9,4.1,13,7.32,5.44,4.38,10.64,9.1,16,13.64,2.43,2.08,6-1.44,3.54-3.54Z"/><path class="cls-2" d="M234,143.82c0-.22-1.18-.46-2.27-1.06a25.65,25.65,0,0,1-3.39-2.38,20.5,20.5,0,0,1-3.59-3.25,4.35,4.35,0,0,1-1.07-1.52q-.54-2.6-1.89,1.93c.49.4,10-3.2,11-3.39a38.85,38.85,0,0,1,11.1-.68c2.83.25,7.28.7,9.5,2.79q1,1.3.45.07a8.33,8.33,0,0,1-1.25,2.55,19.7,19.7,0,0,1-2.49,3.53c-2.62,2.83-5.57,2.32-9,.89-2-.83-7.25-3-7-4.74l-1,3.79c.41-.9,2.58-.84,4-.82a19.63,19.63,0,0,1,3.3.31c1.78.33,4.13,2.14,2.39-.27l-1-3.79-.06,1,1-3.79q2.35-1.73.35-1.08a33.82,33.82,0,0,1-3.31.73,30.55,30.55,0,0,1-3.07.2q-2.94-.56-.78.74l2.2,5.3-.08-.89-1,3.79q-3.09,2.62-.09.62A30.58,30.58,0,0,1,240,142.9c3.72-1.68,4.54-7,2.69-10.26-2.18-3.82-6.59-4.34-10.26-2.69-4.3,1.93-9.24,4.64-9.37,10-.13,5.94,4.95,9.24,10.28,9.73,8,.75,25.2-1.19,23.33-12.9-1.7-10.61-19.55-11.65-27.56-9.27-11.62,3.45-13,17-3.72,24,8.15,6.19,20.64,11.09,30.33,5.58,7.81-4.44,15.36-16.08,12.39-25.18-3.42-10.52-17.15-13.45-26.78-13.56a59.17,59.17,0,0,0-15.92,2.16c-5,1.35-11.53,2.94-14.71,7.39-7.36,10.28,3.79,21,11.58,26.52,4.88,3.44,10.91,5.28,16.78,3.34s10.35-7.56,10-13.95c-.54-9.6-15.54-9.66-15,0Z"/><path class="cls-2" d="M227.95,145.88c-5,3.68-13,7.66-15.28,13.72-2.36,6.37,2.54,14.2,4.78,20.08,2.59,6.83,5.26,13.65,7.46,20.62,1,3.16,1.9,6.34,2.64,9.57.41,1.76.77,3.52,1.07,5.3q.22,1.23.38,2.47-.34,4.06,3.36-.82l7.23,5.51c-2.49-9-6.11-18.51-2.61-27.69s-11.05-12.93-14.46-4c-4.47,11.73-.58,24.13,2.61,35.66.94,3.41,3.9,5.21,7.23,5.51,8.11.72,12.19-7.14,11.64-14.18-.61-7.82-2.74-15.62-5.18-23-2.49-7.59-5.43-15-8.26-22.48l-2-5.37-1-2.68q-.68-2.68-1.37,1.78c.26.22,8.87-6.62,9.39-7,3.28-2.43,4.85-6.46,2.69-10.26-1.84-3.23-7-5.1-10.26-2.69Z"/><path class="cls-2" d="M257.87,221.71l-.77,1.6,11.78-1.52c-4.22-4.93-10.15-4.23-15.72-2.61-4.79,1.39-9.84-2.45-15-2.13-9.59.59-9.66,15.6,0,15,3.81-.24,7.36,2.13,11.18,2.53a17.47,17.47,0,0,0,6.33-.45q1.47-.46,2.91-1,3.11-.58-.33-.72c3,3.49,9.78,2.65,11.78-1.52l.77-1.6c4.15-8.66-8.78-16.28-13-7.57Z"/><path class="cls-2" d="M259.34,229.14c7.3-4,10.69-12,10.58-20.1-.13-9.53-5.92-17.3-7.35-26.47-.76-4.92-.19-10-1.75-14.79a22.16,22.16,0,0,0-8-11c-8.46-6.3-18.93-6-28.91-4.86-9.33,1.08-9.91,15,0,15,4.79,0,6.55,3.38,8.24,7.36A160.84,160.84,0,0,1,238,190.82,183.2,183.2,0,0,1,244.8,225c.52,5.11,6.16,10.05,11.29,6.48,6.07-4.23,5.34-10.15,3.66-16.58-1.91-7.29-4.38-14.44-6.84-21.56-4.14-11.94-9-24.15-18.9-32.49-5.59-4.7-14.42-.35-12.54,7.3a37.86,37.86,0,0,0,9.87,17.58c6.76,6.92,17.36-3.69,10.61-10.61a22.85,22.85,0,0,1-6-11l-12.54,7.3c6.94,5.83,10.7,13.78,13.74,22.17,1.71,4.72,3.32,9.48,4.87,14.25.79,2.43,1.55,4.86,2.26,7.32q.66,2.3,1.26,4.62.24.93.46,1.86.53,3.62,2.54-3.14L259.8,225a201,201,0,0,0-9.65-45.26c-4.53-13.16-9.82-27.93-26.26-27.89v15c6.11-.71,13.83-2.15,19.35,1.41s3.78,12.34,4.84,18.11c1.2,6.53,4.57,12.33,6.25,18.71,1,3.71,1.29,9-2.56,11.05-8.48,4.61-.92,17.57,7.57,13Z"/><path class="cls-3" d="M167.4,128.78c23.19.48,37.5,21.6,44.54,41.36,8.12,22.79,10.66,47.89,9.44,71.95-.16,3.22,4.84,3.21,5,0,1.35-26.59-1.74-55-12.13-79.73-8.25-19.63-24-38.11-46.85-38.58-3.22-.07-3.22,4.93,0,5Z"/></svg>